<svg xmlns="http://www.w3.org/2000/svg" width="320" height="320" viewBox="0 0 320 320" fill="none">
  <rect width="320" height="320" fill="none"/>
  <g opacity="0.18" fill="#f5d85e">
    <circle cx="54" cy="48" r="13"/>
    <circle cx="82" cy="36" r="11"/>
    <circle cx="112" cy="38" r="11"/>
    <circle cx="140" cy="52" r="12"/>
    <path d="M88 68c-23 0-42 15-42 33 0 16 13 27 42 27s42-11 42-27c0-18-19-33-42-33zm0 11c10 0 18 6 18 13s-8 13-18 13-18-6-18-13 8-13 18-13z"/>
  </g>
  <g opacity="0.15" fill="#dbe9d5" transform="translate(168 48)">
    <circle cx="54" cy="48" r="13"/>
    <circle cx="82" cy="36" r="11"/>
    <circle cx="112" cy="38" r="11"/>
    <circle cx="140" cy="52" r="12"/>
    <path d="M88 68c-23 0-42 15-42 33 0 16 13 27 42 27s42-11 42-27c0-18-19-33-42-33zm0 11c10 0 18 6 18 13s-8 13-18 13-18-6-18-13 8-13 18-13z"/>
  </g>
  <g opacity="0.14" fill="#f5d85e" transform="translate(34 168) rotate(-8 88 88)">
    <circle cx="54" cy="48" r="13"/>
    <circle cx="82" cy="36" r="11"/>
    <circle cx="112" cy="38" r="11"/>
    <circle cx="140" cy="52" r="12"/>
    <path d="M88 68c-23 0-42 15-42 33 0 16 13 27 42 27s42-11 42-27c0-18-19-33-42-33zm0 11c10 0 18 6 18 13s-8 13-18 13-18-6-18-13 8-13 18-13z"/>
  </g>
  <g opacity="0.12" fill="#dbe9d5" transform="translate(182 180) rotate(10 88 88)">
    <circle cx="54" cy="48" r="13"/>
    <circle cx="82" cy="36" r="11"/>
    <circle cx="112" cy="38" r="11"/>
    <circle cx="140" cy="52" r="12"/>
    <path d="M88 68c-23 0-42 15-42 33 0 16 13 27 42 27s42-11 42-27c0-18-19-33-42-33zm0 11c10 0 18 6 18 13s-8 13-18 13-18-6-18-13 8-13 18-13z"/>
  </g>
</svg>
