<svg xmlns="http://www.w3.org/2000/svg" width="280" height="280" viewBox="0 0 280 280" fill="none">
  <!-- Soft yellow paw tile for announcement / vet-themed backgrounds -->
  <g opacity="0.16" fill="#ca8a04">
    <circle cx="44" cy="40" r="11"/>
    <circle cx="68" cy="30" r="9"/>
    <circle cx="94" cy="32" r="9"/>
    <circle cx="118" cy="44" r="10"/>
    <path d="M76 56c-19 0-35 13-35 28 0 14 11 23 35 23s35-9 35-23c0-15-16-28-35-28zm0 9c8 0 15 5 15 11s-7 11-15 11-15-5-15-11 7-11 15-11z"/>
  </g>
  <g opacity="0.12" fill="#eab308" transform="translate(148 24) rotate(12 76 56)">
    <circle cx="44" cy="40" r="11"/>
    <circle cx="68" cy="30" r="9"/>
    <circle cx="94" cy="32" r="9"/>
    <circle cx="118" cy="44" r="10"/>
    <path d="M76 56c-19 0-35 13-35 28 0 14 11 23 35 23s35-9 35-23c0-15-16-28-35-28zm0 9c8 0 15 5 15 11s-7 11-15 11-15-5-15-11 7-11 15-11z"/>
  </g>
  <g opacity="0.1" fill="#facc15" transform="translate(32 148) rotate(-8 76 56)">
    <circle cx="44" cy="40" r="11"/>
    <circle cx="68" cy="30" r="9"/>
    <circle cx="94" cy="32" r="9"/>
    <circle cx="118" cy="44" r="10"/>
    <path d="M76 56c-19 0-35 13-35 28 0 14 11 23 35 23s35-9 35-23c0-15-16-28-35-28zm0 9c8 0 15 5 15 11s-7 11-15 11-15-5-15-11 7-11 15-11z"/>
  </g>
  <g opacity="0.11" fill="#d97706" transform="translate(156 156) rotate(6 76 56)">
    <circle cx="44" cy="40" r="11"/>
    <circle cx="68" cy="30" r="9"/>
    <circle cx="94" cy="32" r="9"/>
    <circle cx="118" cy="44" r="10"/>
    <path d="M76 56c-19 0-35 13-35 28 0 14 11 23 35 23s35-9 35-23c0-15-16-28-35-28zm0 9c8 0 15 5 15 11s-7 11-15 11-15-5-15-11 7-11 15-11z"/>
  </g>
</svg>
