<svg xmlns="http://www.w3.org/2000/svg" viewBox="0 0 1440 140" preserveAspectRatio="none" aria-hidden="true">
  <defs>
    <linearGradient id="waveFill" x1="0" y1="0" x2="1" y2="0">
      <stop offset="0%" stop-color="#fffaf0"/>
      <stop offset="50%" stop-color="#fffdf7"/>
      <stop offset="100%" stop-color="#f8f0c7"/>
    </linearGradient>
  </defs>
  <path d="M0 54 C120 10 240 10 360 54 C480 98 600 98 720 54 C840 10 960 10 1080 54 C1200 98 1320 98 1440 54 L1440 140 L0 140 Z" fill="url(#waveFill)"/>
  <path d="M0 54 C120 10 240 10 360 54 C480 98 600 98 720 54 C840 10 960 10 1080 54 C1200 98 1320 98 1440 54" fill="none" stroke="#2f6b43" stroke-opacity=".15" stroke-width="4" stroke-linecap="round"/>
  <path d="M0 66 C120 22 240 22 360 66 C480 110 600 110 720 66 C840 22 960 22 1080 66 C1200 110 1320 110 1440 66" fill="none" stroke="#d4b749" stroke-opacity=".18" stroke-width="3" stroke-linecap="round"/>
</svg>
