<svg xmlns="http://www.w3.org/2000/svg" viewBox="0 0 128 128" role="img" aria-labelledby="title">
  <title>Bayawan Vet paw logo</title>
  <defs>
    <linearGradient id="bg" x1="0" y1="0" x2="1" y2="1">
      <stop offset="0%" stop-color="#fff8d7"/>
      <stop offset="100%" stop-color="#f2d76b"/>
    </linearGradient>
    <linearGradient id="paw" x1="0" y1="0" x2="0" y2="1">
      <stop offset="0%" stop-color="#2f6b43"/>
      <stop offset="100%" stop-color="#214d31"/>
    </linearGradient>
  </defs>
  <circle cx="64" cy="64" r="58" fill="url(#bg)" stroke="#214d31" stroke-opacity=".18" stroke-width="3"/>
  <circle cx="40" cy="45" r="9.5" fill="url(#paw)"/>
  <circle cx="56" cy="34" r="10" fill="url(#paw)"/>
  <circle cx="72" cy="34" r="10" fill="url(#paw)"/>
  <circle cx="88" cy="45" r="9.5" fill="url(#paw)"/>
  <path d="M64 56c-16 0-29 11-29 24 0 11 11 18 29 18s29-7 29-18c0-13-13-24-29-24zm0 8c7 0 13 4.5 13 10s-6 10-13 10-13-4.5-13-10 6-10 13-10z" fill="url(#paw)"/>
  <circle cx="64" cy="28" r="6" fill="#ffffff" fill-opacity=".28"/>
  <circle cx="23" cy="27" r="4" fill="#ffffff" fill-opacity=".22"/>
</svg>
